<svg xmlns="http://www.w3.org/2000/svg" xmlns:v="https://svgstorm.com"
viewBox = "0 0 1284 885"
width="660"
height="180">
<g fill="None" fill-opacity="0.0" stroke="#FFFFFF" stroke-opacity="1.00" stroke-width="0.3"><path d="
M 0.00 885.00
L 1284.00 885.00
L 1284.00 0.00
L 0.00 0.00
L 0.00 885.00
M 696.00 272.00
C 703.06 275.16 707.45 280.51 711.25 287.75 C 715.06 294.98 717.10 302.76 718.33 311.67 C 719.56 320.58 721.16 330.69 720.00 341.00 C 718.84 351.31 719.72 357.62 717.02 369.02 C 714.33 380.43 723.02 381.60 724.78 369.78 C 726.54 357.96 725.80 353.23 729.00 343.00
C 737.08 351.73 736.46 361.86 739.98 373.02 C 743.49 384.19 740.85 403.07 730.25 392.75 C 719.66 382.42 714.60 383.20 703.32 377.68 C 692.04 372.16 678.05 372.67 666.00 373.00 C 653.95 373.33 644.09 378.63 633.77 382.77 C 623.45 386.91 617.40 393.70 608.00 399.00
C 601.02 380.01 604.41 357.80 613.00 340.00
C 617.96 351.28 612.61 359.84 617.33 373.67 C 622.04 387.50 631.62 379.47 627.67 367.33 C 623.72 355.19 626.20 342.77 626.33 331.33 C 626.46 319.89 631.64 311.74 634.92 301.92 C 638.21 292.11 642.95 285.62 647.92 276.92 C 652.89 268.22 657.90 262.90 662.92 253.92 C 667.95 244.95 669.68 231.56 667.00 221.00
C 678.29 232.39 681.86 250.34 679.00 268.00 C 676.14 285.66 669.98 296.50 668.00 316.00 C 666.02 335.50 690.83 335.47 697.92 318.92 C 705.02 302.38 703.12 288.09 696.00 272.00
M 603.00 404.00
C 582.42 396.73 575.57 375.51 583.33 356.33 C 591.09 337.15 594.76 313.39 586.00 294.00
C 620.60 320.24 590.16 368.83 603.00 404.00
M 755.00 299.00
C 746.80 317.86 751.53 339.10 760.77 357.23 C 770.02 375.36 763.52 396.82 743.00 404.00
C 756.06 370.06 720.46 325.04 755.00 299.00
M 131.00 500.00
C 150.33 500.00 169.67 500.00 189.00 500.00
C 189.00 504.67 189.00 509.33 189.00 514.00
C 163.09 513.34 136.47 515.33 111.00 513.00
C 112.23 489.22 128.82 468.08 137.97 445.97 C 147.13 423.87 161.37 403.64 169.00 381.00
C 159.71 379.32 148.05 383.24 139.00 381.00 C 129.95 378.76 115.56 387.36 113.00 376.00 C 110.45 364.64 124.94 366.60 134.00 367.00 C 143.06 367.40 155.96 366.74 165.00 367.00 C 174.04 367.26 189.17 363.85 189.00 374.00 C 188.83 384.15 183.82 387.69 180.69 395.70 C 177.57 403.70 173.98 409.21 170.70 416.69 C 167.41 424.18 163.45 430.02 160.23 437.23 C 157.01 444.44 153.41 450.24 150.25 457.25 C 147.09 464.25 143.77 471.26 140.23 478.23 C 136.69 485.20 132.42 492.35 131.00 500.00
M 271.00 473.00
C 260.46 471.58 251.72 474.89 241.00 473.00 C 230.28 471.11 223.32 474.44 222.67 484.67 C 222.02 494.90 217.69 499.51 217.00 509.00 C 216.31 518.50 197.18 515.48 201.33 507.33 C 205.48 499.18 204.97 491.94 207.93 483.93 C 210.88 475.91 211.20 467.82 213.98 459.98 C 216.75 452.13 217.33 443.71 219.99 435.99 C 222.65 428.27 223.60 419.83 226.32 412.32 C 229.04 404.81 229.65 395.81 232.78 388.78 C 235.91 381.74 233.03 370.25 241.03 367.03 C 249.02 363.80 261.37 367.41 261.32 376.68 C 261.27 385.95 266.48 391.72 267.78 400.22 C 269.08 408.73 271.84 416.11 273.78 424.22 C 275.72 432.33 277.86 440.09 279.93 448.07 C 281.99 456.06 284.36 463.92 285.99 472.01 C 287.63 480.09 291.18 487.44 292.33 495.67 C 293.48 503.90 301.64 513.18 290.00 514.00 C 278.36 514.82 279.45 505.62 277.02 496.98 C 274.60 488.33 273.29 481.51 271.00 473.00
M 365.00 367.00
C 370.90 367.57 377.60 369.14 382.70 373.30 C 387.79 377.46 390.43 382.52 391.99 389.01 C 393.55 395.49 393.96 404.78 394.00 412.00 C 394.04 419.22 393.95 428.62 392.07 435.07 C 390.20 441.52 389.70 447.62 383.75 451.75 C 377.81 455.88 374.00 458.67 365.93 458.93 C 357.85 459.19 350.37 460.12 341.00 459.00 C 331.63 457.88 330.61 466.03 332.00 475.00 C 333.39 483.97 330.57 491.06 332.00 500.00 C 333.43 508.94 331.66 515.83 322.00 514.00 C 312.34 512.17 318.12 501.86 317.00 494.00 C 315.88 486.14 317.41 477.04 317.00 469.00 C 316.59 460.96 316.97 452.02 317.00 444.00 C 317.03 435.98 316.51 426.80 317.00 419.00 C 317.49 411.20 315.73 401.21 317.00 394.00 C 318.27 386.79 314.11 374.88 317.00 369.00 C 319.89 363.12 333.91 367.86 340.00 367.00 C 346.09 366.14 358.47 366.37 365.00 367.00
M 432.00 459.00
C 431.81 469.35 432.26 480.75 432.00 491.00 C 431.74 501.25 435.84 515.11 423.00 514.00 C 410.16 512.89 417.30 499.06 416.00 489.00 C 414.70 478.95 416.49 467.22 416.00 457.00 C 415.51 446.78 416.02 435.10 416.00 425.00 C 415.98 414.90 415.56 402.59 416.00 393.00 C 416.44 383.41 411.94 366.96 423.00 367.00 C 434.06 367.04 444.74 367.04 455.00 367.00 C 465.26 366.96 473.40 367.40 481.25 372.75 C 489.09 378.11 490.85 384.76 492.33 393.67 C 493.81 402.59 493.79 414.06 493.00 423.00 C 492.22 431.94 492.40 441.45 486.25 448.25 C 480.09 455.04 474.68 458.19 464.98 458.98 C 455.27 459.76 442.03 458.44 432.00 459.00
M 593.00 513.00
C 588.15 515.15 582.27 513.46 577.00 514.00
C 575.50 504.35 571.84 498.42 570.67 488.33 C 569.50 478.23 565.82 470.71 554.00 473.00 C 542.18 475.29 532.61 471.28 521.00 473.00
C 520.60 484.95 513.68 491.17 513.67 503.67 C 513.67 516.17 494.19 517.89 497.93 505.93 C 501.66 493.96 502.48 486.71 505.78 475.78 C 509.07 464.85 510.65 455.98 513.33 445.33 C 516.00 434.67 519.15 426.14 521.33 415.33 C 523.50 404.51 527.97 396.55 529.00 385.00 C 530.02 373.45 536.37 363.85 549.00 367.00 C 561.63 370.15 556.69 383.14 560.99 393.01 C 565.29 402.88 565.80 412.98 568.99 423.01 C 572.18 433.04 574.20 442.97 576.98 453.02 C 579.75 463.08 582.07 473.08 584.93 483.07 C 587.78 493.07 589.65 503.16 593.00 513.00
M 1182.00 373.00
C 1208.26 375.54 1216.20 392.31 1216.00 418.00 C 1215.80 443.69 1218.51 467.81 1215.00 494.00 C 1211.49 520.19 1189.28 524.66 1164.00 523.00 C 1138.72 521.35 1129.70 503.06 1130.00 478.00 C 1130.30 452.94 1128.13 427.62 1131.00 402.00 C 1133.87 376.38 1158.81 370.76 1182.00 373.00
M 772.00 521.00
C 772.00 472.33 772.00 423.67 772.00 375.00
C 797.10 376.46 843.45 365.90 848.33 399.67 C 853.21 433.45 852.15 461.19 848.22 495.22 C 844.29 529.26 797.89 520.50 772.00 521.00
M 947.00 375.00
C 947.00 379.33 947.00 383.67 947.00 388.00
C 936.71 388.30 926.28 387.61 916.00 388.00 C 905.72 388.39 892.98 384.02 893.00 397.00 C 893.02 409.98 894.89 414.72 893.00 428.00 C 891.11 441.28 900.75 442.03 912.00 441.00 C 923.25 439.97 930.56 441.09 940.00 441.00
C 942.36 450.38 938.47 456.13 929.00 454.00 C 919.53 451.87 914.57 456.32 905.00 454.00 C 895.43 451.68 891.59 457.35 893.00 466.00 C 894.41 474.65 892.17 482.23 893.00 490.00 C 893.83 497.77 889.86 508.17 899.00 508.00 C 908.14 507.83 914.41 508.09 923.00 508.00 C 931.59 507.91 938.56 508.07 947.00 508.00
C 947.00 512.33 947.00 516.67 947.00 521.00
C 924.00 521.00 901.00 521.00 878.00 521.00
C 878.00 472.33 878.00 423.67 878.00 375.00
C 901.00 375.00 924.00 375.00 947.00 375.00
M 986.00 375.00
C 986.07 384.03 985.91 392.96 986.00 402.00 C 986.09 411.04 985.84 421.03 986.00 430.00 C 986.16 438.97 985.66 449.35 986.00 458.00 C 986.34 466.65 985.21 477.07 986.00 485.00 C 986.79 492.93 981.83 507.46 992.00 507.00 C 1002.17 506.54 1009.68 508.12 1020.00 507.00 C 1030.32 505.88 1037.55 508.45 1034.00 521.00
C 1013.00 521.00 992.00 521.00 971.00 521.00
C 971.00 472.33 971.00 423.67 971.00 375.00
C 976.00 375.00 981.00 375.00 986.00 375.00
M 1067.00 375.00
C 1067.00 419.00 1067.00 463.00 1067.00 507.00
C 1077.69 506.22 1087.20 508.05 1098.00 507.00 C 1108.80 505.95 1119.40 506.70 1115.00 521.00
C 1094.00 521.00 1073.00 521.00 1052.00 521.00
C 1052.00 472.33 1052.00 423.67 1052.00 375.00
C 1057.00 375.00 1062.00 375.00 1067.00 375.00
M 685.00 380.00
C 742.06 388.15 770.51 461.00 735.08 506.08 C 699.65 551.16 626.87 545.92 602.23 491.77 C 577.59 437.62 622.24 371.04 685.00 380.00
M 766.00 535.00
C 752.11 552.58 732.42 558.60 710.98 563.98 C 689.53 569.35 656.40 569.49 634.98 564.02 C 613.56 558.56 592.43 552.57 580.00 534.00
C 592.62 534.66 606.42 525.12 618.67 525.67 C 630.93 526.23 638.15 536.96 651.67 539.33 C 665.20 541.70 680.78 541.73 694.22 539.22 C 707.67 536.72 714.88 526.06 727.07 525.93 C 739.26 525.79 753.88 533.36 766.00 535.00 Z"/>
</g>
<g fill="None" fill-opacity="0.0" stroke="#000000" stroke-opacity="1.00" stroke-width="0.3"><path d="
M 696.00 272.00
C 703.12 288.09 705.02 302.38 697.92 318.92 C 690.83 335.47 666.02 335.50 668.00 316.00 C 669.98 296.50 676.14 285.66 679.00 268.00 C 681.86 250.34 678.29 232.39 667.00 221.00
C 669.68 231.56 667.95 244.95 662.92 253.92 C 657.90 262.90 652.89 268.22 647.92 276.92 C 642.95 285.62 638.21 292.11 634.92 301.92 C 631.64 311.74 626.46 319.89 626.33 331.33 C 626.20 342.77 623.72 355.19 627.67 367.33 C 631.62 379.47 622.04 387.50 617.33 373.67 C 612.61 359.84 617.96 351.28 613.00 340.00
C 604.41 357.80 601.02 380.01 608.00 399.00
C 617.40 393.70 623.45 386.91 633.77 382.77 C 644.09 378.63 653.95 373.33 666.00 373.00 C 678.05 372.67 692.04 372.16 703.32 377.68 C 714.60 383.20 719.66 382.42 730.25 392.75 C 740.85 403.07 743.49 384.19 739.98 373.02 C 736.46 361.86 737.08 351.73 729.00 343.00
C 725.80 353.23 726.54 357.96 724.78 369.78 C 723.02 381.60 714.33 380.43 717.02 369.02 C 719.72 357.62 718.84 351.31 720.00 341.00 C 721.16 330.69 719.56 320.58 718.33 311.67 C 717.10 302.76 715.06 294.98 711.25 287.75 C 707.45 280.51 703.06 275.16 696.00 272.00 Z"/>
</g>
<g fill="None" fill-opacity="0.0" stroke="#000000" stroke-opacity="1.00" stroke-width="0.3"><path d="
M 603.00 404.00
C 590.16 368.83 620.60 320.24 586.00 294.00
C 594.76 313.39 591.09 337.15 583.33 356.33 C 575.57 375.51 582.42 396.73 603.00 404.00 Z"/>
</g>
<g fill="None" fill-opacity="0.0" stroke="#000000" stroke-opacity="1.00" stroke-width="0.3"><path d="
M 755.00 299.00
C 720.46 325.04 756.06 370.06 743.00 404.00
C 763.52 396.82 770.02 375.36 760.77 357.23 C 751.53 339.10 746.80 317.86 755.00 299.00 Z"/>
</g>
<g fill="None" fill-opacity="0.0" stroke="#000000" stroke-opacity="1.00" stroke-width="0.3"><path d="
M 131.00 500.00
C 132.42 492.35 136.69 485.20 140.23 478.23 C 143.77 471.26 147.09 464.25 150.25 457.25 C 153.41 450.24 157.01 444.44 160.23 437.23 C 163.45 430.02 167.41 424.18 170.70 416.69 C 173.98 409.21 177.57 403.70 180.69 395.70 C 183.82 387.69 188.83 384.15 189.00 374.00 C 189.17 363.85 174.04 367.26 165.00 367.00 C 155.96 366.74 143.06 367.40 134.00 367.00 C 124.94 366.60 110.45 364.64 113.00 376.00 C 115.56 387.36 129.95 378.76 139.00 381.00 C 148.05 383.24 159.71 379.32 169.00 381.00
C 161.37 403.64 147.13 423.87 137.97 445.97 C 128.82 468.08 112.23 489.22 111.00 513.00
C 136.47 515.33 163.09 513.34 189.00 514.00
C 189.00 509.33 189.00 504.67 189.00 500.00
C 169.67 500.00 150.33 500.00 131.00 500.00 Z"/>
</g>
<g fill="None" fill-opacity="0.0" stroke="#000000" stroke-opacity="1.00" stroke-width="0.3"><path d="
M 271.00 473.00
C 273.29 481.51 274.60 488.33 277.02 496.98 C 279.45 505.62 278.36 514.82 290.00 514.00 C 301.64 513.18 293.48 503.90 292.33 495.67 C 291.18 487.44 287.63 480.09 285.99 472.01 C 284.36 463.92 281.99 456.06 279.93 448.07 C 277.86 440.09 275.72 432.33 273.78 424.22 C 271.84 416.11 269.08 408.73 267.78 400.22 C 266.48 391.72 261.27 385.95 261.32 376.68 C 261.37 367.41 249.02 363.80 241.03 367.03 C 233.03 370.25 235.91 381.74 232.78 388.78 C 229.65 395.81 229.04 404.81 226.32 412.32 C 223.60 419.83 222.65 428.27 219.99 435.99 C 217.33 443.71 216.75 452.13 213.98 459.98 C 211.20 467.82 210.88 475.91 207.93 483.93 C 204.97 491.94 205.48 499.18 201.33 507.33 C 197.18 515.48 216.31 518.50 217.00 509.00 C 217.69 499.51 222.02 494.90 222.67 484.67 C 223.32 474.44 230.28 471.11 241.00 473.00 C 251.72 474.89 260.46 471.58 271.00 473.00
M 267.00 459.00
C 254.67 459.00 242.33 459.00 230.00 459.00
C 234.22 434.64 241.94 411.18 247.00 387.00
C 253.79 395.86 254.30 410.30 257.98 422.02 C 261.66 433.75 263.83 447.02 267.00 459.00 Z"/>
</g>
<g fill="None" fill-opacity="0.0" stroke="#000000" stroke-opacity="1.00" stroke-width="0.3"><path d="
M 365.00 367.00
C 358.47 366.37 346.09 366.14 340.00 367.00 C 333.91 367.86 319.89 363.12 317.00 369.00 C 314.11 374.88 318.27 386.79 317.00 394.00 C 315.73 401.21 317.49 411.20 317.00 419.00 C 316.51 426.80 317.03 435.98 317.00 444.00 C 316.97 452.02 316.59 460.96 317.00 469.00 C 317.41 477.04 315.88 486.14 317.00 494.00 C 318.12 501.86 312.34 512.17 322.00 514.00 C 331.66 515.83 333.43 508.94 332.00 500.00 C 330.57 491.06 333.39 483.97 332.00 475.00 C 330.61 466.03 331.63 457.88 341.00 459.00 C 350.37 460.12 357.85 459.19 365.93 458.93 C 374.00 458.67 377.81 455.88 383.75 451.75 C 389.70 447.62 390.20 441.52 392.07 435.07 C 393.95 428.62 394.04 419.22 394.00 412.00 C 393.96 404.78 393.55 395.49 391.99 389.01 C 390.43 382.52 387.79 377.46 382.70 373.30 C 377.60 369.14 370.90 367.57 365.00 367.00
M 364.00 381.00
C 371.02 382.14 376.20 387.50 377.00 395.00 C 377.80 402.51 380.34 412.45 378.67 420.67 C 377.00 428.89 378.64 435.45 371.30 441.30 C 363.96 447.15 356.63 443.11 347.00 445.00 C 337.37 446.89 329.53 442.93 332.00 433.00 C 334.47 423.07 330.04 413.01 332.00 405.00 C 333.96 396.99 327.50 382.00 336.01 381.01 C 344.52 380.02 355.62 379.64 364.00 381.00 Z"/>
</g>
<g fill="None" fill-opacity="0.0" stroke="#000000" stroke-opacity="1.00" stroke-width="0.3"><path d="
M 432.00 459.00
C 442.03 458.44 455.27 459.76 464.98 458.98 C 474.68 458.19 480.09 455.04 486.25 448.25 C 492.40 441.45 492.22 431.94 493.00 423.00 C 493.79 414.06 493.81 402.59 492.33 393.67 C 490.85 384.76 489.09 378.11 481.25 372.75 C 473.40 367.40 465.26 366.96 455.00 367.00 C 444.74 367.04 434.06 367.04 423.00 367.00 C 411.94 366.96 416.44 383.41 416.00 393.00 C 415.56 402.59 415.98 414.90 416.00 425.00 C 416.02 435.10 415.51 446.78 416.00 457.00 C 416.49 467.22 414.70 478.95 416.00 489.00 C 417.30 499.06 410.16 512.89 423.00 514.00 C 435.84 515.11 431.74 501.25 432.00 491.00 C 432.26 480.75 431.81 469.35 432.00 459.00
M 432.00 445.00
C 432.00 423.67 432.00 402.33 432.00 381.00
C 443.47 382.95 469.95 375.34 475.30 389.70 C 480.66 404.06 480.36 421.81 475.22 436.22 C 470.09 450.63 443.58 443.17 432.00 445.00 Z"/>
</g>
<g fill="None" fill-opacity="0.0" stroke="#000000" stroke-opacity="1.00" stroke-width="0.3"><path d="
M 593.00 513.00
C 589.65 503.16 587.78 493.07 584.93 483.07 C 582.07 473.08 579.75 463.08 576.98 453.02 C 574.20 442.97 572.18 433.04 568.99 423.01 C 565.80 412.98 565.29 402.88 560.99 393.01 C 556.69 383.14 561.63 370.15 549.00 367.00 C 536.37 363.85 530.02 373.45 529.00 385.00 C 527.97 396.55 523.50 404.51 521.33 415.33 C 519.15 426.14 516.00 434.67 513.33 445.33 C 510.65 455.98 509.07 464.85 505.78 475.78 C 502.48 486.71 501.66 493.96 497.93 505.93 C 494.19 517.89 513.67 516.17 513.67 503.67 C 513.68 491.17 520.60 484.95 521.00 473.00
C 532.61 471.28 542.18 475.29 554.00 473.00 C 565.82 470.71 569.50 478.23 570.67 488.33 C 571.84 498.42 575.50 504.35 577.00 514.00
C 582.27 513.46 588.15 515.15 593.00 513.00
M 545.00 387.00
C 550.26 411.10 557.97 434.57 562.00 459.00
C 549.75 458.36 536.81 460.30 525.00 458.00
C 529.26 446.54 530.24 433.54 533.99 421.99 C 537.75 410.44 538.76 396.21 545.00 387.00 Z"/>
</g>
<g fill="None" fill-opacity="0.0" stroke="#000000" stroke-opacity="1.00" stroke-width="0.3"><path d="
M 1182.00 373.00
C 1158.81 370.76 1133.87 376.38 1131.00 402.00 C 1128.13 427.62 1130.30 452.94 1130.00 478.00 C 1129.70 503.06 1138.72 521.35 1164.00 523.00 C 1189.28 524.66 1211.49 520.19 1215.00 494.00 C 1218.51 467.81 1215.80 443.69 1216.00 418.00 C 1216.20 392.31 1208.26 375.54 1182.00 373.00
M 1184.00 387.00
C 1203.45 389.78 1199.65 411.99 1201.00 429.00 C 1202.35 446.01 1199.88 468.27 1200.00 487.00 C 1200.12 505.73 1180.86 514.34 1162.00 509.00 C 1143.14 503.66 1146.17 485.45 1145.00 467.00 C 1143.83 448.55 1146.23 429.09 1146.00 409.00 C 1145.77 388.91 1165.69 384.38 1184.00 387.00 Z"/>
</g>
<g fill="None" fill-opacity="0.0" stroke="#000000" stroke-opacity="1.00" stroke-width="0.3"><path d="
M 772.00 521.00
C 797.89 520.50 844.29 529.26 848.22 495.22 C 852.15 461.19 853.21 433.45 848.33 399.67 C 843.45 365.90 797.10 376.46 772.00 375.00
C 772.00 423.67 772.00 472.33 772.00 521.00
M 813.00 388.00
C 821.07 388.78 830.50 391.52 832.78 401.22 C 835.05 410.93 834.63 421.84 835.78 432.22 C 836.93 442.60 835.52 454.58 835.01 465.01 C 834.50 475.44 835.43 486.20 832.07 496.07 C 828.72 505.95 820.07 507.38 809.99 507.99 C 799.92 508.60 785.20 510.85 787.00 498.00 C 788.80 485.15 786.35 476.07 787.00 464.00 C 787.65 451.93 787.06 441.79 787.00 430.00 C 786.94 418.21 787.81 407.82 787.00 396.00 C 786.19 384.18 803.62 387.09 813.00 388.00 Z"/>
</g>
<g fill="None" fill-opacity="0.0" stroke="#000000" stroke-opacity="1.00" stroke-width="0.3"><path d="
M 947.00 375.00
C 924.00 375.00 901.00 375.00 878.00 375.00
C 878.00 423.67 878.00 472.33 878.00 521.00
C 901.00 521.00 924.00 521.00 947.00 521.00
C 947.00 516.67 947.00 512.33 947.00 508.00
C 938.56 508.07 931.59 507.91 923.00 508.00 C 914.41 508.09 908.14 507.83 899.00 508.00 C 889.86 508.17 893.83 497.77 893.00 490.00 C 892.17 482.23 894.41 474.65 893.00 466.00 C 891.59 457.35 895.43 451.68 905.00 454.00 C 914.57 456.32 919.53 451.87 929.00 454.00 C 938.47 456.13 942.36 450.38 940.00 441.00
C 930.56 441.09 923.25 439.97 912.00 441.00 C 900.75 442.03 891.11 441.28 893.00 428.00 C 894.89 414.72 893.02 409.98 893.00 397.00 C 892.98 384.02 905.72 388.39 916.00 388.00 C 926.28 387.61 936.71 388.30 947.00 388.00
C 947.00 383.67 947.00 379.33 947.00 375.00 Z"/>
</g>
<g fill="None" fill-opacity="0.0" stroke="#000000" stroke-opacity="1.00" stroke-width="0.3"><path d="
M 986.00 375.00
C 981.00 375.00 976.00 375.00 971.00 375.00
C 971.00 423.67 971.00 472.33 971.00 521.00
C 992.00 521.00 1013.00 521.00 1034.00 521.00
C 1037.55 508.45 1030.32 505.88 1020.00 507.00 C 1009.68 508.12 1002.17 506.54 992.00 507.00 C 981.83 507.46 986.79 492.93 986.00 485.00 C 985.21 477.07 986.34 466.65 986.00 458.00 C 985.66 449.35 986.16 438.97 986.00 430.00 C 985.84 421.03 986.09 411.04 986.00 402.00 C 985.91 392.96 986.07 384.03 986.00 375.00 Z"/>
</g>
<g fill="None" fill-opacity="0.0" stroke="#000000" stroke-opacity="1.00" stroke-width="0.3"><path d="
M 1067.00 375.00
C 1062.00 375.00 1057.00 375.00 1052.00 375.00
C 1052.00 423.67 1052.00 472.33 1052.00 521.00
C 1073.00 521.00 1094.00 521.00 1115.00 521.00
C 1119.40 506.70 1108.80 505.95 1098.00 507.00 C 1087.20 508.05 1077.69 506.22 1067.00 507.00
C 1067.00 463.00 1067.00 419.00 1067.00 375.00 Z"/>
</g>
<g fill="None" fill-opacity="0.0" stroke="#000000" stroke-opacity="1.00" stroke-width="0.3"><path d="
M 685.00 380.00
C 622.24 371.04 577.59 437.62 602.23 491.77 C 626.87 545.92 699.65 551.16 735.08 506.08 C 770.51 461.00 742.06 388.15 685.00 380.00
M 687.00 419.00
C 699.47 415.85 711.70 421.70 716.92 434.08 C 722.15 446.45 705.71 456.91 707.00 468.00
C 696.74 473.79 700.31 462.06 702.77 459.77 C 705.23 457.48 703.65 439.48 696.31 447.31 C 688.96 455.13 687.13 471.74 688.78 481.22 C 690.43 490.70 697.30 486.41 703.22 488.78 C 709.15 491.15 712.33 492.84 719.00 495.00 C 725.68 497.16 716.36 506.52 713.00 498.00
C 704.29 501.02 694.94 503.32 686.00 500.00
C 687.17 511.70 668.97 515.45 669.79 526.23 C 670.61 537.01 665.08 529.87 664.22 523.78 C 663.37 517.69 659.98 511.42 663.00 505.00
C 656.87 506.47 647.89 506.42 642.77 503.23 C 637.65 500.04 628.16 495.57 638.00 493.00
C 640.71 500.55 653.09 498.93 658.08 494.08 C 663.07 489.23 660.02 480.21 654.25 474.75 C 648.47 469.30 652.68 460.09 650.22 452.78 C 647.77 445.46 641.79 439.39 634.75 446.75 C 627.72 454.11 642.31 463.51 629.00 463.00
C 627.79 451.54 617.77 440.17 624.77 428.77 C 631.77 417.37 645.27 415.90 657.00 420.00
C 658.80 413.38 663.25 413.45 666.75 407.75 C 670.25 402.05 670.09 397.04 664.32 392.68 C 658.56 388.32 667.03 383.94 669.77 391.23 C 672.51 398.52 677.94 396.13 680.77 402.23 C 683.60 408.33 685.98 412.26 687.00 419.00 Z"/>
</g>
<g fill="None" fill-opacity="0.0" stroke="#FFFFFF" stroke-opacity="1.00" stroke-width="0.3"><path d="
M 364.00 381.00
C 355.62 379.64 344.52 380.02 336.01 381.01 C 327.50 382.00 333.96 396.99 332.00 405.00 C 330.04 413.01 334.47 423.07 332.00 433.00 C 329.53 442.93 337.37 446.89 347.00 445.00 C 356.63 443.11 363.96 447.15 371.30 441.30 C 378.64 435.45 377.00 428.89 378.67 420.67 C 380.34 412.45 377.80 402.51 377.00 395.00 C 376.20 387.50 371.02 382.14 364.00 381.00 Z"/>
</g>
<g fill="None" fill-opacity="0.0" stroke="#FFFFFF" stroke-opacity="1.00" stroke-width="0.3"><path d="
M 432.00 445.00
C 443.58 443.17 470.09 450.63 475.22 436.22 C 480.36 421.81 480.66 404.06 475.30 389.70 C 469.95 375.34 443.47 382.95 432.00 381.00
C 432.00 402.33 432.00 423.67 432.00 445.00 Z"/>
</g>
<g fill="None" fill-opacity="0.0" stroke="#FFFFFF" stroke-opacity="1.00" stroke-width="0.3"><path d="
M 687.00 419.00
C 685.98 412.26 683.60 408.33 680.77 402.23 C 677.94 396.13 672.51 398.52 669.77 391.23 C 667.03 383.94 658.56 388.32 664.32 392.68 C 670.09 397.04 670.25 402.05 666.75 407.75 C 663.25 413.45 658.80 413.38 657.00 420.00
C 645.27 415.90 631.77 417.37 624.77 428.77 C 617.77 440.17 627.79 451.54 629.00 463.00
C 642.31 463.51 627.72 454.11 634.75 446.75 C 641.79 439.39 647.77 445.46 650.22 452.78 C 652.68 460.09 648.47 469.30 654.25 474.75 C 660.02 480.21 663.07 489.23 658.08 494.08 C 653.09 498.93 640.71 500.55 638.00 493.00
C 628.16 495.57 637.65 500.04 642.77 503.23 C 647.89 506.42 656.87 506.47 663.00 505.00
C 659.98 511.42 663.37 517.69 664.22 523.78 C 665.08 529.87 670.61 537.01 669.79 526.23 C 668.97 515.45 687.17 511.70 686.00 500.00
C 694.94 503.32 704.29 501.02 713.00 498.00
C 716.36 506.52 725.68 497.16 719.00 495.00 C 712.33 492.84 709.15 491.15 703.22 488.78 C 697.30 486.41 690.43 490.70 688.78 481.22 C 687.13 471.74 688.96 455.13 696.31 447.31 C 703.65 439.48 705.23 457.48 702.77 459.77 C 700.31 462.06 696.74 473.79 707.00 468.00
C 705.71 456.91 722.15 446.45 716.92 434.08 C 711.70 421.70 699.47 415.85 687.00 419.00 Z"/>
</g>
<g fill="None" fill-opacity="0.0" stroke="#FFFFFF" stroke-opacity="1.00" stroke-width="0.3"><path d="
M 267.00 459.00
C 263.83 447.02 261.66 433.75 257.98 422.02 C 254.30 410.30 253.79 395.86 247.00 387.00
C 241.94 411.18 234.22 434.64 230.00 459.00
C 242.33 459.00 254.67 459.00 267.00 459.00 Z"/>
</g>
<g fill="None" fill-opacity="0.0" stroke="#FFFFFF" stroke-opacity="1.00" stroke-width="0.3"><path d="
M 545.00 387.00
C 538.76 396.21 537.75 410.44 533.99 421.99 C 530.24 433.54 529.26 446.54 525.00 458.00
C 536.81 460.30 549.75 458.36 562.00 459.00
C 557.97 434.57 550.26 411.10 545.00 387.00 Z"/>
</g>
<g fill="None" fill-opacity="0.0" stroke="#FFFFFF" stroke-opacity="1.00" stroke-width="0.3"><path d="
M 1184.00 387.00
C 1165.69 384.38 1145.77 388.91 1146.00 409.00 C 1146.23 429.09 1143.83 448.55 1145.00 467.00 C 1146.17 485.45 1143.14 503.66 1162.00 509.00 C 1180.86 514.34 1200.12 505.73 1200.00 487.00 C 1199.88 468.27 1202.35 446.01 1201.00 429.00 C 1199.65 411.99 1203.45 389.78 1184.00 387.00 Z"/>
</g>
<g fill="None" fill-opacity="0.0" stroke="#FFFFFF" stroke-opacity="1.00" stroke-width="0.3"><path d="
M 813.00 388.00
C 803.62 387.09 786.19 384.18 787.00 396.00 C 787.81 407.82 786.94 418.21 787.00 430.00 C 787.06 441.79 787.65 451.93 787.00 464.00 C 786.35 476.07 788.80 485.15 787.00 498.00 C 785.20 510.85 799.92 508.60 809.99 507.99 C 820.07 507.38 828.72 505.95 832.07 496.07 C 835.43 486.20 834.50 475.44 835.01 465.01 C 835.52 454.58 836.93 442.60 835.78 432.22 C 834.63 421.84 835.05 410.93 832.78 401.22 C 830.50 391.52 821.07 388.78 813.00 388.00 Z"/>
</g>
<g fill="None" fill-opacity="0.0" stroke="#000000" stroke-opacity="1.00" stroke-width="0.3"><path d="
M 766.00 535.00
C 753.88 533.36 739.26 525.79 727.07 525.93 C 714.88 526.06 707.67 536.72 694.22 539.22 C 680.78 541.73 665.20 541.70 651.67 539.33 C 638.15 536.96 630.93 526.23 618.67 525.67 C 606.42 525.12 592.62 534.66 580.00 534.00
C 592.43 552.57 613.56 558.56 634.98 564.02 C 656.40 569.49 689.53 569.35 710.98 563.98 C 732.42 558.60 752.11 552.58 766.00 535.00
M 617.00 540.00
C 613.88 540.57 611.24 542.68 608.00 543.00
C 607.35 546.32 612.67 545.63 612.00 549.00
C 609.67 549.72 597.56 545.27 600.79 541.77 C 604.02 538.27 612.09 539.27 606.00 533.00
C 610.10 533.57 615.75 535.87 617.00 540.00
M 739.00 534.00
C 747.40 535.84 743.74 551.15 734.77 548.21 C 725.80 545.28 729.25 531.87 739.00 534.00
M 613.00 550.00
C 615.70 547.35 618.69 540.10 623.03 540.03 C 627.37 539.95 628.34 550.86 626.67 553.67 C 625.00 556.48 616.70 548.43 613.00 550.00
M 730.00 548.00
C 733.35 552.35 723.04 555.07 720.78 553.22 C 718.52 551.37 715.62 540.00 720.03 541.03 C 724.44 542.06 722.33 553.69 730.00 548.00
M 629.00 556.00
C 627.83 549.81 632.96 537.76 640.22 544.78 C 647.49 551.79 632.90 554.92 629.00 556.00
M 717.00 552.00
C 719.84 557.02 711.20 557.35 708.00 558.00
C 707.38 555.86 702.62 544.26 707.09 544.08 C 711.55 543.91 709.77 557.89 717.00 552.00
M 643.00 559.00
C 640.94 551.87 647.16 541.01 654.23 547.77 C 661.30 554.53 645.94 557.07 643.00 559.00
M 703.00 548.00
C 701.28 549.70 697.71 548.03 697.00 551.00
C 705.42 550.19 701.45 553.47 698.00 556.00
C 700.46 556.12 704.98 554.92 704.00 559.00
C 700.27 558.99 696.92 560.66 693.00 560.00
C 693.17 555.79 691.77 552.00 691.00 548.00
C 694.05 546.04 701.60 543.97 703.00 548.00
M 668.00 562.00
C 666.12 557.64 655.19 561.75 655.08 558.91 C 654.97 556.08 660.10 545.64 663.70 547.36 C 667.29 549.07 668.93 558.86 668.00 562.00
M 679.00 562.00
C 676.51 557.84 676.98 552.83 677.00 548.00
C 691.83 542.20 694.29 564.65 679.00 562.00 Z"/>
</g>
<g fill="None" fill-opacity="0.0" stroke="#FFFFFF" stroke-opacity="1.00" stroke-width="0.3"><path d="
M 617.00 540.00
C 615.75 535.87 610.10 533.57 606.00 533.00
C 612.09 539.27 604.02 538.27 600.79 541.77 C 597.56 545.27 609.67 549.72 612.00 549.00
C 612.67 545.63 607.35 546.32 608.00 543.00
C 611.24 542.68 613.88 540.57 617.00 540.00 Z"/>
</g>
<g fill="None" fill-opacity="0.0" stroke="#FFFFFF" stroke-opacity="1.00" stroke-width="0.3"><path d="
M 739.00 534.00
C 729.25 531.87 725.80 545.28 734.77 548.21 C 743.74 551.15 747.40 535.84 739.00 534.00
M 737.00 538.00
C 739.73 538.59 739.75 545.77 736.30 544.64 C 732.85 543.52 733.39 537.22 737.00 538.00 Z"/>
</g>
<g fill="None" fill-opacity="0.0" stroke="#000000" stroke-opacity="1.00" stroke-width="0.3"><path d="
M 737.00 538.00
C 733.39 537.22 732.85 543.52 736.30 544.64 C 739.75 545.77 739.73 538.59 737.00 538.00 Z"/>
</g>
<g fill="None" fill-opacity="0.0" stroke="#FFFFFF" stroke-opacity="1.00" stroke-width="0.3"><path d="
M 613.00 550.00
C 616.70 548.43 625.00 556.48 626.67 553.67 C 628.34 550.86 627.37 539.95 623.03 540.03 C 618.69 540.10 615.70 547.35 613.00 550.00 Z"/>
</g>
<g fill="None" fill-opacity="0.0" stroke="#FFFFFF" stroke-opacity="1.00" stroke-width="0.3"><path d="
M 730.00 548.00
C 722.33 553.69 724.44 542.06 720.03 541.03 C 715.62 540.00 718.52 551.37 720.78 553.22 C 723.04 555.07 733.35 552.35 730.00 548.00 Z"/>
</g>
<g fill="None" fill-opacity="0.0" stroke="#F6F6F6" stroke-opacity="1.00" stroke-width="0.3"><path d="
M 629.00 556.00
C 632.90 554.92 647.49 551.79 640.22 544.78 C 632.96 537.76 627.83 549.81 629.00 556.00 Z"/>
</g>
<g fill="None" fill-opacity="0.0" stroke="#FFFFFF" stroke-opacity="1.00" stroke-width="0.3"><path d="
M 717.00 552.00
C 709.77 557.89 711.55 543.91 707.09 544.08 C 702.62 544.26 707.38 555.86 708.00 558.00
C 711.20 557.35 719.84 557.02 717.00 552.00 Z"/>
</g>
<g fill="None" fill-opacity="0.0" stroke="#F6F6F6" stroke-opacity="1.00" stroke-width="0.3"><path d="
M 643.00 559.00
C 645.94 557.07 661.30 554.53 654.23 547.77 C 647.16 541.01 640.94 551.87 643.00 559.00 Z"/>
</g>
<g fill="None" fill-opacity="0.0" stroke="#FFFFFF" stroke-opacity="1.00" stroke-width="0.3"><path d="
M 703.00 548.00
C 701.60 543.97 694.05 546.04 691.00 548.00
C 691.77 552.00 693.17 555.79 693.00 560.00
C 696.92 560.66 700.27 558.99 704.00 559.00
C 704.98 554.92 700.46 556.12 698.00 556.00
C 701.45 553.47 705.42 550.19 697.00 551.00
C 697.71 548.03 701.28 549.70 703.00 548.00 Z"/>
</g>
<g fill="None" fill-opacity="0.0" stroke="#FFFFFF" stroke-opacity="1.00" stroke-width="0.3"><path d="
M 668.00 562.00
C 668.93 558.86 667.29 549.07 663.70 547.36 C 660.10 545.64 654.97 556.08 655.08 558.91 C 655.19 561.75 666.12 557.64 668.00 562.00 Z"/>
</g>
<g fill="None" fill-opacity="0.0" stroke="#FFFFFF" stroke-opacity="1.00" stroke-width="0.3"><path d="
M 679.00 562.00
C 694.29 564.65 691.83 542.20 677.00 548.00
C 676.98 552.83 676.51 557.84 679.00 562.00
M 684.00 551.00
C 685.52 553.03 685.29 555.96 684.00 558.00
C 681.13 557.11 681.13 551.86 684.00 551.00 Z"/>
</g>
<g fill="None" fill-opacity="0.0" stroke="#000000" stroke-opacity="1.00" stroke-width="0.3"><path d="
M 684.00 551.00
C 681.13 551.86 681.13 557.11 684.00 558.00
C 685.29 555.96 685.52 553.03 684.00 551.00 Z"/>
</g>
<g fill="#FFFFFF" fill-opacity="1.00" stroke="None">
<path d="
M 0.00 885.00
L 1284.00 885.00
L 1284.00 0.00
L 0.00 0.00
L 0.00 885.00
M 696.00 272.00
C 703.06 275.16 707.45 280.51 711.25 287.75 C 715.06 294.98 717.10 302.76 718.33 311.67 C 719.56 320.58 721.16 330.69 720.00 341.00 C 718.84 351.31 719.72 357.62 717.02 369.02 C 714.33 380.43 723.02 381.60 724.78 369.78 C 726.54 357.96 725.80 353.23 729.00 343.00
C 737.08 351.73 736.46 361.86 739.98 373.02 C 743.49 384.19 740.85 403.07 730.25 392.75 C 719.66 382.42 714.60 383.20 703.32 377.68 C 692.04 372.16 678.05 372.67 666.00 373.00 C 653.95 373.33 644.09 378.63 633.77 382.77 C 623.45 386.91 617.40 393.70 608.00 399.00
C 601.02 380.01 604.41 357.80 613.00 340.00
C 617.96 351.28 612.61 359.84 617.33 373.67 C 622.04 387.50 631.62 379.47 627.67 367.33 C 623.72 355.19 626.20 342.77 626.33 331.33 C 626.46 319.89 631.64 311.74 634.92 301.92 C 638.21 292.11 642.95 285.62 647.92 276.92 C 652.89 268.22 657.90 262.90 662.92 253.92 C 667.95 244.95 669.68 231.56 667.00 221.00
C 678.29 232.39 681.86 250.34 679.00 268.00 C 676.14 285.66 669.98 296.50 668.00 316.00 C 666.02 335.50 690.83 335.47 697.92 318.92 C 705.02 302.38 703.12 288.09 696.00 272.00
M 603.00 404.00
C 582.42 396.73 575.57 375.51 583.33 356.33 C 591.09 337.15 594.76 313.39 586.00 294.00
C 620.60 320.24 590.16 368.83 603.00 404.00
M 755.00 299.00
C 746.80 317.86 751.53 339.10 760.77 357.23 C 770.02 375.36 763.52 396.82 743.00 404.00
C 756.06 370.06 720.46 325.04 755.00 299.00
M 131.00 500.00
C 150.33 500.00 169.67 500.00 189.00 500.00
C 189.00 504.67 189.00 509.33 189.00 514.00
C 163.09 513.34 136.47 515.33 111.00 513.00
C 112.23 489.22 128.82 468.08 137.97 445.97 C 147.13 423.87 161.37 403.64 169.00 381.00
C 159.71 379.32 148.05 383.24 139.00 381.00 C 129.95 378.76 115.56 387.36 113.00 376.00 C 110.45 364.64 124.94 366.60 134.00 367.00 C 143.06 367.40 155.96 366.74 165.00 367.00 C 174.04 367.26 189.17 363.85 189.00 374.00 C 188.83 384.15 183.82 387.69 180.69 395.70 C 177.57 403.70 173.98 409.21 170.70 416.69 C 167.41 424.18 163.45 430.02 160.23 437.23 C 157.01 444.44 153.41 450.24 150.25 457.25 C 147.09 464.25 143.77 471.26 140.23 478.23 C 136.69 485.20 132.42 492.35 131.00 500.00
M 271.00 473.00
C 260.46 471.58 251.72 474.89 241.00 473.00 C 230.28 471.11 223.32 474.44 222.67 484.67 C 222.02 494.90 217.69 499.51 217.00 509.00 C 216.31 518.50 197.18 515.48 201.33 507.33 C 205.48 499.18 204.97 491.94 207.93 483.93 C 210.88 475.91 211.20 467.82 213.98 459.98 C 216.75 452.13 217.33 443.71 219.99 435.99 C 222.65 428.27 223.60 419.83 226.32 412.32 C 229.04 404.81 229.65 395.81 232.78 388.78 C 235.91 381.74 233.03 370.25 241.03 367.03 C 249.02 363.80 261.37 367.41 261.32 376.68 C 261.27 385.95 266.48 391.72 267.78 400.22 C 269.08 408.73 271.84 416.11 273.78 424.22 C 275.72 432.33 277.86 440.09 279.93 448.07 C 281.99 456.06 284.36 463.92 285.99 472.01 C 287.63 480.09 291.18 487.44 292.33 495.67 C 293.48 503.90 301.64 513.18 290.00 514.00 C 278.36 514.82 279.45 505.62 277.02 496.98 C 274.60 488.33 273.29 481.51 271.00 473.00
M 365.00 367.00
C 370.90 367.57 377.60 369.14 382.70 373.30 C 387.79 377.46 390.43 382.52 391.99 389.01 C 393.55 395.49 393.96 404.78 394.00 412.00 C 394.04 419.22 393.95 428.62 392.07 435.07 C 390.20 441.52 389.70 447.62 383.75 451.75 C 377.81 455.88 374.00 458.67 365.93 458.93 C 357.85 459.19 350.37 460.12 341.00 459.00 C 331.63 457.88 330.61 466.03 332.00 475.00 C 333.39 483.97 330.57 491.06 332.00 500.00 C 333.43 508.94 331.66 515.83 322.00 514.00 C 312.34 512.17 318.12 501.86 317.00 494.00 C 315.88 486.14 317.41 477.04 317.00 469.00 C 316.59 460.96 316.97 452.02 317.00 444.00 C 317.03 435.98 316.51 426.80 317.00 419.00 C 317.49 411.20 315.73 401.21 317.00 394.00 C 318.27 386.79 314.11 374.88 317.00 369.00 C 319.89 363.12 333.91 367.86 340.00 367.00 C 346.09 366.14 358.47 366.37 365.00 367.00
M 432.00 459.00
C 431.81 469.35 432.26 480.75 432.00 491.00 C 431.74 501.25 435.84 515.11 423.00 514.00 C 410.16 512.89 417.30 499.06 416.00 489.00 C 414.70 478.95 416.49 467.22 416.00 457.00 C 415.51 446.78 416.02 435.10 416.00 425.00 C 415.98 414.90 415.56 402.59 416.00 393.00 C 416.44 383.41 411.94 366.96 423.00 367.00 C 434.06 367.04 444.74 367.04 455.00 367.00 C 465.26 366.96 473.40 367.40 481.25 372.75 C 489.09 378.11 490.85 384.76 492.33 393.67 C 493.81 402.59 493.79 414.06 493.00 423.00 C 492.22 431.94 492.40 441.45 486.25 448.25 C 480.09 455.04 474.68 458.19 464.98 458.98 C 455.27 459.76 442.03 458.44 432.00 459.00
M 593.00 513.00
C 588.15 515.15 582.27 513.46 577.00 514.00
C 575.50 504.35 571.84 498.42 570.67 488.33 C 569.50 478.23 565.82 470.71 554.00 473.00 C 542.18 475.29 532.61 471.28 521.00 473.00
C 520.60 484.95 513.68 491.17 513.67 503.67 C 513.67 516.17 494.19 517.89 497.93 505.93 C 501.66 493.96 502.48 486.71 505.78 475.78 C 509.07 464.85 510.65 455.98 513.33 445.33 C 516.00 434.67 519.15 426.14 521.33 415.33 C 523.50 404.51 527.97 396.55 529.00 385.00 C 530.02 373.45 536.37 363.85 549.00 367.00 C 561.63 370.15 556.69 383.14 560.99 393.01 C 565.29 402.88 565.80 412.98 568.99 423.01 C 572.18 433.04 574.20 442.97 576.98 453.02 C 579.75 463.08 582.07 473.08 584.93 483.07 C 587.78 493.07 589.65 503.16 593.00 513.00
M 1182.00 373.00
C 1208.26 375.54 1216.20 392.31 1216.00 418.00 C 1215.80 443.69 1218.51 467.81 1215.00 494.00 C 1211.49 520.19 1189.28 524.66 1164.00 523.00 C 1138.72 521.35 1129.70 503.06 1130.00 478.00 C 1130.30 452.94 1128.13 427.62 1131.00 402.00 C 1133.87 376.38 1158.81 370.76 1182.00 373.00
M 772.00 521.00
C 772.00 472.33 772.00 423.67 772.00 375.00
C 797.10 376.46 843.45 365.90 848.33 399.67 C 853.21 433.45 852.15 461.19 848.22 495.22 C 844.29 529.26 797.89 520.50 772.00 521.00
M 947.00 375.00
C 947.00 379.33 947.00 383.67 947.00 388.00
C 936.71 388.30 926.28 387.61 916.00 388.00 C 905.72 388.39 892.98 384.02 893.00 397.00 C 893.02 409.98 894.89 414.72 893.00 428.00 C 891.11 441.28 900.75 442.03 912.00 441.00 C 923.25 439.97 930.56 441.09 940.00 441.00
C 942.36 450.38 938.47 456.13 929.00 454.00 C 919.53 451.87 914.57 456.32 905.00 454.00 C 895.43 451.68 891.59 457.35 893.00 466.00 C 894.41 474.65 892.17 482.23 893.00 490.00 C 893.83 497.77 889.86 508.17 899.00 508.00 C 908.14 507.83 914.41 508.09 923.00 508.00 C 931.59 507.91 938.56 508.07 947.00 508.00
C 947.00 512.33 947.00 516.67 947.00 521.00
C 924.00 521.00 901.00 521.00 878.00 521.00
C 878.00 472.33 878.00 423.67 878.00 375.00
C 901.00 375.00 924.00 375.00 947.00 375.00
M 986.00 375.00
C 986.07 384.03 985.91 392.96 986.00 402.00 C 986.09 411.04 985.84 421.03 986.00 430.00 C 986.16 438.97 985.66 449.35 986.00 458.00 C 986.34 466.65 985.21 477.07 986.00 485.00 C 986.79 492.93 981.83 507.46 992.00 507.00 C 1002.17 506.54 1009.68 508.12 1020.00 507.00 C 1030.32 505.88 1037.55 508.45 1034.00 521.00
C 1013.00 521.00 992.00 521.00 971.00 521.00
C 971.00 472.33 971.00 423.67 971.00 375.00
C 976.00 375.00 981.00 375.00 986.00 375.00
M 1067.00 375.00
C 1067.00 419.00 1067.00 463.00 1067.00 507.00
C 1077.69 506.22 1087.20 508.05 1098.00 507.00 C 1108.80 505.95 1119.40 506.70 1115.00 521.00
C 1094.00 521.00 1073.00 521.00 1052.00 521.00
C 1052.00 472.33 1052.00 423.67 1052.00 375.00
C 1057.00 375.00 1062.00 375.00 1067.00 375.00
M 685.00 380.00
C 742.06 388.15 770.51 461.00 735.08 506.08 C 699.65 551.16 626.87 545.92 602.23 491.77 C 577.59 437.62 622.24 371.04 685.00 380.00
M 766.00 535.00
C 752.11 552.58 732.42 558.60 710.98 563.98 C 689.53 569.35 656.40 569.49 634.98 564.02 C 613.56 558.56 592.43 552.57 580.00 534.00
C 592.62 534.66 606.42 525.12 618.67 525.67 C 630.93 526.23 638.15 536.96 651.67 539.33 C 665.20 541.70 680.78 541.73 694.22 539.22 C 707.67 536.72 714.88 526.06 727.07 525.93 C 739.26 525.79 753.88 533.36 766.00 535.00 Z"/>
</g>
<g fill="#000000" fill-opacity="1.00" stroke="None">
<path d="
M 696.00 272.00
C 703.12 288.09 705.02 302.38 697.92 318.92 C 690.83 335.47 666.02 335.50 668.00 316.00 C 669.98 296.50 676.14 285.66 679.00 268.00 C 681.86 250.34 678.29 232.39 667.00 221.00
C 669.68 231.56 667.95 244.95 662.92 253.92 C 657.90 262.90 652.89 268.22 647.92 276.92 C 642.95 285.62 638.21 292.11 634.92 301.92 C 631.64 311.74 626.46 319.89 626.33 331.33 C 626.20 342.77 623.72 355.19 627.67 367.33 C 631.62 379.47 622.04 387.50 617.33 373.67 C 612.61 359.84 617.96 351.28 613.00 340.00
C 604.41 357.80 601.02 380.01 608.00 399.00
C 617.40 393.70 623.45 386.91 633.77 382.77 C 644.09 378.63 653.95 373.33 666.00 373.00 C 678.05 372.67 692.04 372.16 703.32 377.68 C 714.60 383.20 719.66 382.42 730.25 392.75 C 740.85 403.07 743.49 384.19 739.98 373.02 C 736.46 361.86 737.08 351.73 729.00 343.00
C 725.80 353.23 726.54 357.96 724.78 369.78 C 723.02 381.60 714.33 380.43 717.02 369.02 C 719.72 357.62 718.84 351.31 720.00 341.00 C 721.16 330.69 719.56 320.58 718.33 311.67 C 717.10 302.76 715.06 294.98 711.25 287.75 C 707.45 280.51 703.06 275.16 696.00 272.00 Z"/>
</g>
<g fill="#000000" fill-opacity="1.00" stroke="None">
<path d="
M 603.00 404.00
C 590.16 368.83 620.60 320.24 586.00 294.00
C 594.76 313.39 591.09 337.15 583.33 356.33 C 575.57 375.51 582.42 396.73 603.00 404.00 Z"/>
</g>
<g fill="#000000" fill-opacity="1.00" stroke="None">
<path d="
M 755.00 299.00
C 720.46 325.04 756.06 370.06 743.00 404.00
C 763.52 396.82 770.02 375.36 760.77 357.23 C 751.53 339.10 746.80 317.86 755.00 299.00 Z"/>
</g>
<g fill="#000000" fill-opacity="1.00" stroke="None">
<path d="
M 131.00 500.00
C 132.42 492.35 136.69 485.20 140.23 478.23 C 143.77 471.26 147.09 464.25 150.25 457.25 C 153.41 450.24 157.01 444.44 160.23 437.23 C 163.45 430.02 167.41 424.18 170.70 416.69 C 173.98 409.21 177.57 403.70 180.69 395.70 C 183.82 387.69 188.83 384.15 189.00 374.00 C 189.17 363.85 174.04 367.26 165.00 367.00 C 155.96 366.74 143.06 367.40 134.00 367.00 C 124.94 366.60 110.45 364.64 113.00 376.00 C 115.56 387.36 129.95 378.76 139.00 381.00 C 148.05 383.24 159.71 379.32 169.00 381.00
C 161.37 403.64 147.13 423.87 137.97 445.97 C 128.82 468.08 112.23 489.22 111.00 513.00
C 136.47 515.33 163.09 513.34 189.00 514.00
C 189.00 509.33 189.00 504.67 189.00 500.00
C 169.67 500.00 150.33 500.00 131.00 500.00 Z"/>
</g>
<g fill="#000000" fill-opacity="1.00" stroke="None">
<path d="
M 271.00 473.00
C 273.29 481.51 274.60 488.33 277.02 496.98 C 279.45 505.62 278.36 514.82 290.00 514.00 C 301.64 513.18 293.48 503.90 292.33 495.67 C 291.18 487.44 287.63 480.09 285.99 472.01 C 284.36 463.92 281.99 456.06 279.93 448.07 C 277.86 440.09 275.72 432.33 273.78 424.22 C 271.84 416.11 269.08 408.73 267.78 400.22 C 266.48 391.72 261.27 385.95 261.32 376.68 C 261.37 367.41 249.02 363.80 241.03 367.03 C 233.03 370.25 235.91 381.74 232.78 388.78 C 229.65 395.81 229.04 404.81 226.32 412.32 C 223.60 419.83 222.65 428.27 219.99 435.99 C 217.33 443.71 216.75 452.13 213.98 459.98 C 211.20 467.82 210.88 475.91 207.93 483.93 C 204.97 491.94 205.48 499.18 201.33 507.33 C 197.18 515.48 216.31 518.50 217.00 509.00 C 217.69 499.51 222.02 494.90 222.67 484.67 C 223.32 474.44 230.28 471.11 241.00 473.00 C 251.72 474.89 260.46 471.58 271.00 473.00
M 267.00 459.00
C 254.67 459.00 242.33 459.00 230.00 459.00
C 234.22 434.64 241.94 411.18 247.00 387.00
C 253.79 395.86 254.30 410.30 257.98 422.02 C 261.66 433.75 263.83 447.02 267.00 459.00 Z"/>
</g>
<g fill="#000000" fill-opacity="1.00" stroke="None">
<path d="
M 365.00 367.00
C 358.47 366.37 346.09 366.14 340.00 367.00 C 333.91 367.86 319.89 363.12 317.00 369.00 C 314.11 374.88 318.27 386.79 317.00 394.00 C 315.73 401.21 317.49 411.20 317.00 419.00 C 316.51 426.80 317.03 435.98 317.00 444.00 C 316.97 452.02 316.59 460.96 317.00 469.00 C 317.41 477.04 315.88 486.14 317.00 494.00 C 318.12 501.86 312.34 512.17 322.00 514.00 C 331.66 515.83 333.43 508.94 332.00 500.00 C 330.57 491.06 333.39 483.97 332.00 475.00 C 330.61 466.03 331.63 457.88 341.00 459.00 C 350.37 460.12 357.85 459.19 365.93 458.93 C 374.00 458.67 377.81 455.88 383.75 451.75 C 389.70 447.62 390.20 441.52 392.07 435.07 C 393.95 428.62 394.04 419.22 394.00 412.00 C 393.96 404.78 393.55 395.49 391.99 389.01 C 390.43 382.52 387.79 377.46 382.70 373.30 C 377.60 369.14 370.90 367.57 365.00 367.00
M 364.00 381.00
C 371.02 382.14 376.20 387.50 377.00 395.00 C 377.80 402.51 380.34 412.45 378.67 420.67 C 377.00 428.89 378.64 435.45 371.30 441.30 C 363.96 447.15 356.63 443.11 347.00 445.00 C 337.37 446.89 329.53 442.93 332.00 433.00 C 334.47 423.07 330.04 413.01 332.00 405.00 C 333.96 396.99 327.50 382.00 336.01 381.01 C 344.52 380.02 355.62 379.64 364.00 381.00 Z"/>
</g>
<g fill="#000000" fill-opacity="1.00" stroke="None">
<path d="
M 432.00 459.00
C 442.03 458.44 455.27 459.76 464.98 458.98 C 474.68 458.19 480.09 455.04 486.25 448.25 C 492.40 441.45 492.22 431.94 493.00 423.00 C 493.79 414.06 493.81 402.59 492.33 393.67 C 490.85 384.76 489.09 378.11 481.25 372.75 C 473.40 367.40 465.26 366.96 455.00 367.00 C 444.74 367.04 434.06 367.04 423.00 367.00 C 411.94 366.96 416.44 383.41 416.00 393.00 C 415.56 402.59 415.98 414.90 416.00 425.00 C 416.02 435.10 415.51 446.78 416.00 457.00 C 416.49 467.22 414.70 478.95 416.00 489.00 C 417.30 499.06 410.16 512.89 423.00 514.00 C 435.84 515.11 431.74 501.25 432.00 491.00 C 432.26 480.75 431.81 469.35 432.00 459.00
M 432.00 445.00
C 432.00 423.67 432.00 402.33 432.00 381.00
C 443.47 382.95 469.95 375.34 475.30 389.70 C 480.66 404.06 480.36 421.81 475.22 436.22 C 470.09 450.63 443.58 443.17 432.00 445.00 Z"/>
</g>
<g fill="#000000" fill-opacity="1.00" stroke="None">
<path d="
M 593.00 513.00
C 589.65 503.16 587.78 493.07 584.93 483.07 C 582.07 473.08 579.75 463.08 576.98 453.02 C 574.20 442.97 572.18 433.04 568.99 423.01 C 565.80 412.98 565.29 402.88 560.99 393.01 C 556.69 383.14 561.63 370.15 549.00 367.00 C 536.37 363.85 530.02 373.45 529.00 385.00 C 527.97 396.55 523.50 404.51 521.33 415.33 C 519.15 426.14 516.00 434.67 513.33 445.33 C 510.65 455.98 509.07 464.85 505.78 475.78 C 502.48 486.71 501.66 493.96 497.93 505.93 C 494.19 517.89 513.67 516.17 513.67 503.67 C 513.68 491.17 520.60 484.95 521.00 473.00
C 532.61 471.28 542.18 475.29 554.00 473.00 C 565.82 470.71 569.50 478.23 570.67 488.33 C 571.84 498.42 575.50 504.35 577.00 514.00
C 582.27 513.46 588.15 515.15 593.00 513.00
M 545.00 387.00
C 550.26 411.10 557.97 434.57 562.00 459.00
C 549.75 458.36 536.81 460.30 525.00 458.00
C 529.26 446.54 530.24 433.54 533.99 421.99 C 537.75 410.44 538.76 396.21 545.00 387.00 Z"/>
</g>
<g fill="#000000" fill-opacity="1.00" stroke="None">
<path d="
M 1182.00 373.00
C 1158.81 370.76 1133.87 376.38 1131.00 402.00 C 1128.13 427.62 1130.30 452.94 1130.00 478.00 C 1129.70 503.06 1138.72 521.35 1164.00 523.00 C 1189.28 524.66 1211.49 520.19 1215.00 494.00 C 1218.51 467.81 1215.80 443.69 1216.00 418.00 C 1216.20 392.31 1208.26 375.54 1182.00 373.00
M 1184.00 387.00
C 1203.45 389.78 1199.65 411.99 1201.00 429.00 C 1202.35 446.01 1199.88 468.27 1200.00 487.00 C 1200.12 505.73 1180.86 514.34 1162.00 509.00 C 1143.14 503.66 1146.17 485.45 1145.00 467.00 C 1143.83 448.55 1146.23 429.09 1146.00 409.00 C 1145.77 388.91 1165.69 384.38 1184.00 387.00 Z"/>
</g>
<g fill="#000000" fill-opacity="1.00" stroke="None">
<path d="
M 772.00 521.00
C 797.89 520.50 844.29 529.26 848.22 495.22 C 852.15 461.19 853.21 433.45 848.33 399.67 C 843.45 365.90 797.10 376.46 772.00 375.00
C 772.00 423.67 772.00 472.33 772.00 521.00
M 813.00 388.00
C 821.07 388.78 830.50 391.52 832.78 401.22 C 835.05 410.93 834.63 421.84 835.78 432.22 C 836.93 442.60 835.52 454.58 835.01 465.01 C 834.50 475.44 835.43 486.20 832.07 496.07 C 828.72 505.95 820.07 507.38 809.99 507.99 C 799.92 508.60 785.20 510.85 787.00 498.00 C 788.80 485.15 786.35 476.07 787.00 464.00 C 787.65 451.93 787.06 441.79 787.00 430.00 C 786.94 418.21 787.81 407.82 787.00 396.00 C 786.19 384.18 803.62 387.09 813.00 388.00 Z"/>
</g>
<g fill="#000000" fill-opacity="1.00" stroke="None">
<path d="
M 947.00 375.00
C 924.00 375.00 901.00 375.00 878.00 375.00
C 878.00 423.67 878.00 472.33 878.00 521.00
C 901.00 521.00 924.00 521.00 947.00 521.00
C 947.00 516.67 947.00 512.33 947.00 508.00
C 938.56 508.07 931.59 507.91 923.00 508.00 C 914.41 508.09 908.14 507.83 899.00 508.00 C 889.86 508.17 893.83 497.77 893.00 490.00 C 892.17 482.23 894.41 474.65 893.00 466.00 C 891.59 457.35 895.43 451.68 905.00 454.00 C 914.57 456.32 919.53 451.87 929.00 454.00 C 938.47 456.13 942.36 450.38 940.00 441.00
C 930.56 441.09 923.25 439.97 912.00 441.00 C 900.75 442.03 891.11 441.28 893.00 428.00 C 894.89 414.72 893.02 409.98 893.00 397.00 C 892.98 384.02 905.72 388.39 916.00 388.00 C 926.28 387.61 936.71 388.30 947.00 388.00
C 947.00 383.67 947.00 379.33 947.00 375.00 Z"/>
</g>
<g fill="#000000" fill-opacity="1.00" stroke="None">
<path d="
M 986.00 375.00
C 981.00 375.00 976.00 375.00 971.00 375.00
C 971.00 423.67 971.00 472.33 971.00 521.00
C 992.00 521.00 1013.00 521.00 1034.00 521.00
C 1037.55 508.45 1030.32 505.88 1020.00 507.00 C 1009.68 508.12 1002.17 506.54 992.00 507.00 C 981.83 507.46 986.79 492.93 986.00 485.00 C 985.21 477.07 986.34 466.65 986.00 458.00 C 985.66 449.35 986.16 438.97 986.00 430.00 C 985.84 421.03 986.09 411.04 986.00 402.00 C 985.91 392.96 986.07 384.03 986.00 375.00 Z"/>
</g>
<g fill="#000000" fill-opacity="1.00" stroke="None">
<path d="
M 1067.00 375.00
C 1062.00 375.00 1057.00 375.00 1052.00 375.00
C 1052.00 423.67 1052.00 472.33 1052.00 521.00
C 1073.00 521.00 1094.00 521.00 1115.00 521.00
C 1119.40 506.70 1108.80 505.95 1098.00 507.00 C 1087.20 508.05 1077.69 506.22 1067.00 507.00
C 1067.00 463.00 1067.00 419.00 1067.00 375.00 Z"/>
</g>
<g fill="#000000" fill-opacity="1.00" stroke="None">
<path d="
M 685.00 380.00
C 622.24 371.04 577.59 437.62 602.23 491.77 C 626.87 545.92 699.65 551.16 735.08 506.08 C 770.51 461.00 742.06 388.15 685.00 380.00
M 687.00 419.00
C 699.47 415.85 711.70 421.70 716.92 434.08 C 722.15 446.45 705.71 456.91 707.00 468.00
C 696.74 473.79 700.31 462.06 702.77 459.77 C 705.23 457.48 703.65 439.48 696.31 447.31 C 688.96 455.13 687.13 471.74 688.78 481.22 C 690.43 490.70 697.30 486.41 703.22 488.78 C 709.15 491.15 712.33 492.84 719.00 495.00 C 725.68 497.16 716.36 506.52 713.00 498.00
C 704.29 501.02 694.94 503.32 686.00 500.00
C 687.17 511.70 668.97 515.45 669.79 526.23 C 670.61 537.01 665.08 529.87 664.22 523.78 C 663.37 517.69 659.98 511.42 663.00 505.00
C 656.87 506.47 647.89 506.42 642.77 503.23 C 637.65 500.04 628.16 495.57 638.00 493.00
C 640.71 500.55 653.09 498.93 658.08 494.08 C 663.07 489.23 660.02 480.21 654.25 474.75 C 648.47 469.30 652.68 460.09 650.22 452.78 C 647.77 445.46 641.79 439.39 634.75 446.75 C 627.72 454.11 642.31 463.51 629.00 463.00
C 627.79 451.54 617.77 440.17 624.77 428.77 C 631.77 417.37 645.27 415.90 657.00 420.00
C 658.80 413.38 663.25 413.45 666.75 407.75 C 670.25 402.05 670.09 397.04 664.32 392.68 C 658.56 388.32 667.03 383.94 669.77 391.23 C 672.51 398.52 677.94 396.13 680.77 402.23 C 683.60 408.33 685.98 412.26 687.00 419.00 Z"/>
</g>
<g fill="#FFFFFF" fill-opacity="1.00" stroke="None">
<path d="
M 364.00 381.00
C 355.62 379.64 344.52 380.02 336.01 381.01 C 327.50 382.00 333.96 396.99 332.00 405.00 C 330.04 413.01 334.47 423.07 332.00 433.00 C 329.53 442.93 337.37 446.89 347.00 445.00 C 356.63 443.11 363.96 447.15 371.30 441.30 C 378.64 435.45 377.00 428.89 378.67 420.67 C 380.34 412.45 377.80 402.51 377.00 395.00 C 376.20 387.50 371.02 382.14 364.00 381.00 Z"/>
</g>
<g fill="#FFFFFF" fill-opacity="1.00" stroke="None">
<path d="
M 432.00 445.00
C 443.58 443.17 470.09 450.63 475.22 436.22 C 480.36 421.81 480.66 404.06 475.30 389.70 C 469.95 375.34 443.47 382.95 432.00 381.00
C 432.00 402.33 432.00 423.67 432.00 445.00 Z"/>
</g>
<g fill="#FFFFFF" fill-opacity="1.00" stroke="None">
<path d="
M 687.00 419.00
C 685.98 412.26 683.60 408.33 680.77 402.23 C 677.94 396.13 672.51 398.52 669.77 391.23 C 667.03 383.94 658.56 388.32 664.32 392.68 C 670.09 397.04 670.25 402.05 666.75 407.75 C 663.25 413.45 658.80 413.38 657.00 420.00
C 645.27 415.90 631.77 417.37 624.77 428.77 C 617.77 440.17 627.79 451.54 629.00 463.00
C 642.31 463.51 627.72 454.11 634.75 446.75 C 641.79 439.39 647.77 445.46 650.22 452.78 C 652.68 460.09 648.47 469.30 654.25 474.75 C 660.02 480.21 663.07 489.23 658.08 494.08 C 653.09 498.93 640.71 500.55 638.00 493.00
C 628.16 495.57 637.65 500.04 642.77 503.23 C 647.89 506.42 656.87 506.47 663.00 505.00
C 659.98 511.42 663.37 517.69 664.22 523.78 C 665.08 529.87 670.61 537.01 669.79 526.23 C 668.97 515.45 687.17 511.70 686.00 500.00
C 694.94 503.32 704.29 501.02 713.00 498.00
C 716.36 506.52 725.68 497.16 719.00 495.00 C 712.33 492.84 709.15 491.15 703.22 488.78 C 697.30 486.41 690.43 490.70 688.78 481.22 C 687.13 471.74 688.96 455.13 696.31 447.31 C 703.65 439.48 705.23 457.48 702.77 459.77 C 700.31 462.06 696.74 473.79 707.00 468.00
C 705.71 456.91 722.15 446.45 716.92 434.08 C 711.70 421.70 699.47 415.85 687.00 419.00 Z"/>
</g>
<g fill="#FFFFFF" fill-opacity="1.00" stroke="None">
<path d="
M 267.00 459.00
C 263.83 447.02 261.66 433.75 257.98 422.02 C 254.30 410.30 253.79 395.86 247.00 387.00
C 241.94 411.18 234.22 434.64 230.00 459.00
C 242.33 459.00 254.67 459.00 267.00 459.00 Z"/>
</g>
<g fill="#FFFFFF" fill-opacity="1.00" stroke="None">
<path d="
M 545.00 387.00
C 538.76 396.21 537.75 410.44 533.99 421.99 C 530.24 433.54 529.26 446.54 525.00 458.00
C 536.81 460.30 549.75 458.36 562.00 459.00
C 557.97 434.57 550.26 411.10 545.00 387.00 Z"/>
</g>
<g fill="#FFFFFF" fill-opacity="1.00" stroke="None">
<path d="
M 1184.00 387.00
C 1165.69 384.38 1145.77 388.91 1146.00 409.00 C 1146.23 429.09 1143.83 448.55 1145.00 467.00 C 1146.17 485.45 1143.14 503.66 1162.00 509.00 C 1180.86 514.34 1200.12 505.73 1200.00 487.00 C 1199.88 468.27 1202.35 446.01 1201.00 429.00 C 1199.65 411.99 1203.45 389.78 1184.00 387.00 Z"/>
</g>
<g fill="#FFFFFF" fill-opacity="1.00" stroke="None">
<path d="
M 813.00 388.00
C 803.62 387.09 786.19 384.18 787.00 396.00 C 787.81 407.82 786.94 418.21 787.00 430.00 C 787.06 441.79 787.65 451.93 787.00 464.00 C 786.35 476.07 788.80 485.15 787.00 498.00 C 785.20 510.85 799.92 508.60 809.99 507.99 C 820.07 507.38 828.72 505.95 832.07 496.07 C 835.43 486.20 834.50 475.44 835.01 465.01 C 835.52 454.58 836.93 442.60 835.78 432.22 C 834.63 421.84 835.05 410.93 832.78 401.22 C 830.50 391.52 821.07 388.78 813.00 388.00 Z"/>
</g>
<g fill="#000000" fill-opacity="1.00" stroke="None">
<path d="
M 766.00 535.00
C 753.88 533.36 739.26 525.79 727.07 525.93 C 714.88 526.06 707.67 536.72 694.22 539.22 C 680.78 541.73 665.20 541.70 651.67 539.33 C 638.15 536.96 630.93 526.23 618.67 525.67 C 606.42 525.12 592.62 534.66 580.00 534.00
C 592.43 552.57 613.56 558.56 634.98 564.02 C 656.40 569.49 689.53 569.35 710.98 563.98 C 732.42 558.60 752.11 552.58 766.00 535.00
M 617.00 540.00
C 613.88 540.57 611.24 542.68 608.00 543.00
C 607.35 546.32 612.67 545.63 612.00 549.00
C 609.67 549.72 597.56 545.27 600.79 541.77 C 604.02 538.27 612.09 539.27 606.00 533.00
C 610.10 533.57 615.75 535.87 617.00 540.00
M 739.00 534.00
C 747.40 535.84 743.74 551.15 734.77 548.21 C 725.80 545.28 729.25 531.87 739.00 534.00
M 613.00 550.00
C 615.70 547.35 618.69 540.10 623.03 540.03 C 627.37 539.95 628.34 550.86 626.67 553.67 C 625.00 556.48 616.70 548.43 613.00 550.00
M 730.00 548.00
C 733.35 552.35 723.04 555.07 720.78 553.22 C 718.52 551.37 715.62 540.00 720.03 541.03 C 724.44 542.06 722.33 553.69 730.00 548.00
M 629.00 556.00
C 627.83 549.81 632.96 537.76 640.22 544.78 C 647.49 551.79 632.90 554.92 629.00 556.00
M 717.00 552.00
C 719.84 557.02 711.20 557.35 708.00 558.00
C 707.38 555.86 702.62 544.26 707.09 544.08 C 711.55 543.91 709.77 557.89 717.00 552.00
M 643.00 559.00
C 640.94 551.87 647.16 541.01 654.23 547.77 C 661.30 554.53 645.94 557.07 643.00 559.00
M 703.00 548.00
C 701.28 549.70 697.71 548.03 697.00 551.00
C 705.42 550.19 701.45 553.47 698.00 556.00
C 700.46 556.12 704.98 554.92 704.00 559.00
C 700.27 558.99 696.92 560.66 693.00 560.00
C 693.17 555.79 691.77 552.00 691.00 548.00
C 694.05 546.04 701.60 543.97 703.00 548.00
M 668.00 562.00
C 666.12 557.64 655.19 561.75 655.08 558.91 C 654.97 556.08 660.10 545.64 663.70 547.36 C 667.29 549.07 668.93 558.86 668.00 562.00
M 679.00 562.00
C 676.51 557.84 676.98 552.83 677.00 548.00
C 691.83 542.20 694.29 564.65 679.00 562.00 Z"/>
</g>
<g fill="#FFFFFF" fill-opacity="1.00" stroke="None">
<path d="
M 617.00 540.00
C 615.75 535.87 610.10 533.57 606.00 533.00
C 612.09 539.27 604.02 538.27 600.79 541.77 C 597.56 545.27 609.67 549.72 612.00 549.00
C 612.67 545.63 607.35 546.32 608.00 543.00
C 611.24 542.68 613.88 540.57 617.00 540.00 Z"/>
</g>
<g fill="#FFFFFF" fill-opacity="1.00" stroke="None">
<path d="
M 739.00 534.00
C 729.25 531.87 725.80 545.28 734.77 548.21 C 743.74 551.15 747.40 535.84 739.00 534.00
M 737.00 538.00
C 739.73 538.59 739.75 545.77 736.30 544.64 C 732.85 543.52 733.39 537.22 737.00 538.00 Z"/>
</g>
<g fill="#000000" fill-opacity="1.00" stroke="None">
<path d="
M 737.00 538.00
C 733.39 537.22 732.85 543.52 736.30 544.64 C 739.75 545.77 739.73 538.59 737.00 538.00 Z"/>
</g>
<g fill="#FFFFFF" fill-opacity="1.00" stroke="None">
<path d="
M 613.00 550.00
C 616.70 548.43 625.00 556.48 626.67 553.67 C 628.34 550.86 627.37 539.95 623.03 540.03 C 618.69 540.10 615.70 547.35 613.00 550.00 Z"/>
</g>
<g fill="#FFFFFF" fill-opacity="1.00" stroke="None">
<path d="
M 730.00 548.00
C 722.33 553.69 724.44 542.06 720.03 541.03 C 715.62 540.00 718.52 551.37 720.78 553.22 C 723.04 555.07 733.35 552.35 730.00 548.00 Z"/>
</g>
<g fill="#F6F6F6" fill-opacity="1.00" stroke="None">
<path d="
M 629.00 556.00
C 632.90 554.92 647.49 551.79 640.22 544.78 C 632.96 537.76 627.83 549.81 629.00 556.00 Z"/>
</g>
<g fill="#FFFFFF" fill-opacity="1.00" stroke="None">
<path d="
M 717.00 552.00
C 709.77 557.89 711.55 543.91 707.09 544.08 C 702.62 544.26 707.38 555.86 708.00 558.00
C 711.20 557.35 719.84 557.02 717.00 552.00 Z"/>
</g>
<g fill="#F6F6F6" fill-opacity="1.00" stroke="None">
<path d="
M 643.00 559.00
C 645.94 557.07 661.30 554.53 654.23 547.77 C 647.16 541.01 640.94 551.87 643.00 559.00 Z"/>
</g>
<g fill="#FFFFFF" fill-opacity="1.00" stroke="None">
<path d="
M 703.00 548.00
C 701.60 543.97 694.05 546.04 691.00 548.00
C 691.77 552.00 693.17 555.79 693.00 560.00
C 696.92 560.66 700.27 558.99 704.00 559.00
C 704.98 554.92 700.46 556.12 698.00 556.00
C 701.45 553.47 705.42 550.19 697.00 551.00
C 697.71 548.03 701.28 549.70 703.00 548.00 Z"/>
</g>
<g fill="#FFFFFF" fill-opacity="1.00" stroke="None">
<path d="
M 668.00 562.00
C 668.93 558.86 667.29 549.07 663.70 547.36 C 660.10 545.64 654.97 556.08 655.08 558.91 C 655.19 561.75 666.12 557.64 668.00 562.00 Z"/>
</g>
<g fill="#FFFFFF" fill-opacity="1.00" stroke="None">
<path d="
M 679.00 562.00
C 694.29 564.65 691.83 542.20 677.00 548.00
C 676.98 552.83 676.51 557.84 679.00 562.00
M 684.00 551.00
C 685.52 553.03 685.29 555.96 684.00 558.00
C 681.13 557.11 681.13 551.86 684.00 551.00 Z"/>
</g>
<g fill="#000000" fill-opacity="1.00" stroke="None">
<path d="
M 684.00 551.00
C 681.13 551.86 681.13 557.11 684.00 558.00
C 685.29 555.96 685.52 553.03 684.00 551.00 Z"/>
</g>
</svg>
