<?xml version="1.0" standalone="no"?>
<!DOCTYPE svg PUBLIC "-//W3C//DTD SVG 20010904//EN"
 "http://www.w3.org/TR/2001/REC-SVG-20010904/DTD/svg10.dtd">
<svg version="1.0" xmlns="http://www.w3.org/2000/svg"
 width="2334.000000pt" height="1650.000000pt" viewBox="0 0 2334.000000 1650.000000"
 preserveAspectRatio="xMidYMid meet">

<g transform="translate(0.000000,1650.000000) scale(0.100000,-0.100000)"
fill="#000000" stroke="none">
<path d="M11564 11887 c42 -133 51 -214 36 -329 -28 -226 -106 -394 -355 -768
-255 -382 -362 -606 -445 -934 -52 -206 -71 -347 -77 -571 -6 -195 5 -355 32
-507 36 -195 33 -248 -18 -278 -33 -21 -64 -18 -105 8 -83 54 -140 391 -130
765 5 176 5 180 -13 156 -72 -95 -164 -329 -195 -494 -21 -117 -30 -432 -15
-551 13 -96 48 -254 60 -267 5 -4 32 12 62 36 283 230 643 408 969 480 406 90
765 47 1145 -138 143 -69 358 -208 477 -309 l78 -66 16 25 c35 54 43 98 43
250 1 272 -45 510 -141 730 -42 97 -119 228 -128 218 -4 -4 -15 -71 -24 -148
-28 -229 -86 -557 -106 -602 -22 -49 -51 -69 -80 -53 -31 17 -35 56 -16 185
38 258 47 371 53 660 8 420 -14 643 -87 866 -65 198 -193 394 -327 502 -116
93 -116 93 -71 -28 116 -317 142 -530 88 -740 -52 -205 -188 -371 -347 -426
-152 -52 -279 1 -318 133 -32 111 -13 254 95 698 84 348 106 459 120 620 29
338 -56 658 -221 832 -34 35 -58 55 -55 45z"/>
<path d="M9900 10457 c0 -3 13 -36 29 -74 49 -114 72 -217 78 -349 10 -203
-20 -347 -143 -701 -153 -439 -165 -480 -181 -577 -14 -81 -15 -112 -5 -177
13 -89 53 -178 109 -240 29 -33 381 -319 418 -341 6 -4 1 33 -12 82 -68 273
-65 573 13 987 74 394 76 414 77 578 2 173 -10 260 -50 390 -41 132 -98 231
-178 310 -59 59 -155 128 -155 112z"/>
<path d="M13434 10422 c-149 -96 -248 -266 -301 -512 -13 -64 -18 -127 -17
-255 1 -176 1 -182 68 -542 53 -284 68 -420 69 -598 1 -175 -13 -297 -47 -435
-14 -52 -19 -87 -12 -83 52 33 401 320 429 355 51 62 88 147 99 233 15 105 -8
229 -83 445 -239 689 -244 709 -243 960 0 159 3 183 27 261 14 48 38 113 52
144 14 32 24 60 22 62 -2 2 -30 -14 -63 -35z"/>
<path d="M11543 8529 c-177 -16 -409 -82 -567 -161 -604 -304 -966 -944 -908
-1606 20 -223 62 -380 153 -572 223 -469 645 -799 1158 -907 111 -23 149 -27
321 -27 217 -1 334 17 513 75 801 261 1276 1089 1096 1914 -106 488 -434 905
-883 1124 -190 93 -362 141 -576 160 -128 12 -172 12 -307 0z m36 -179 c10 -5
22 -25 25 -44 5 -26 27 -52 98 -117 184 -169 248 -279 248 -429 l0 -68 109 6
c127 6 184 -5 291 -56 93 -43 179 -127 218 -209 24 -51 27 -70 27 -153 -1 -74
-6 -108 -23 -151 -31 -78 -97 -186 -149 -241 -55 -60 -69 -95 -48 -118 32 -35
5 -76 -58 -87 -29 -4 -40 -1 -61 20 -14 15 -26 31 -26 38 0 6 16 27 36 46 58
55 79 169 49 270 -18 61 -45 87 -90 87 -49 0 -97 -50 -145 -149 -48 -101 -55
-133 -40 -196 16 -64 7 -108 -31 -155 -22 -28 -29 -46 -26 -64 3 -14 10 -51
16 -84 24 -132 100 -198 239 -209 119 -9 250 -63 307 -127 13 -15 31 -20 67
-20 82 0 110 -54 50 -100 -44 -35 -112 -16 -112 32 0 26 -26 24 -199 -17 -205
-48 -266 -46 -333 10 -16 14 -33 25 -37 25 -5 0 -11 -25 -14 -55 -8 -78 -40
-138 -100 -187 -170 -142 -287 -312 -236 -343 20 -13 29 -54 17 -80 -14 -31
-59 -34 -88 -5 -24 24 -25 34 -5 64 14 21 13 27 -14 81 -54 106 -62 243 -24
384 6 22 4 23 -23 18 -16 -3 -47 -10 -69 -16 -56 -15 -180 -13 -240 3 -65 17
-108 39 -153 81 -24 21 -50 35 -72 37 -27 2 -35 9 -43 32 -12 35 17 79 55 84
21 3 27 -4 40 -37 20 -51 45 -61 144 -61 149 0 298 78 321 168 4 16 -5 46 -30
95 -20 40 -47 102 -62 138 -19 48 -37 75 -66 98 -77 62 -92 142 -43 231 26 48
27 54 15 98 -15 57 -83 199 -109 229 -37 42 -93 73 -133 73 -52 0 -108 -51
-149 -134 -40 -80 -45 -145 -13 -161 84 -43 82 -114 -4 -131 -45 -9 -73 22
-73 80 0 33 -13 71 -49 146 -59 120 -86 228 -77 306 24 208 197 366 417 381
61 5 95 1 182 -22 106 -27 127 -27 127 1 0 36 49 110 120 182 90 90 105 126
97 235 -5 79 -27 111 -89 128 -44 11 -61 40 -46 79 16 44 50 60 87 40z"/>
<path d="M4750 7123 l0 -1393 150 0 150 0 2 518 3 517 355 6 c283 5 366 9 409
22 192 57 310 181 361 382 69 270 62 750 -15 992 -27 87 -70 157 -130 212
-130 119 -294 145 -902 139 l-383 -3 0 -1392z m829 1117 c52 -6 112 -15 134
-22 56 -17 130 -87 156 -148 31 -72 51 -237 51 -425 0 -371 -51 -519 -198
-576 -53 -21 -77 -23 -359 -27 l-303 -4 0 600 0 601 33 4 c68 8 396 6 486 -3z"/>
<path d="M6788 8513 l-148 -4 0 -1389 0 -1390 150 0 150 0 0 519 0 519 353 5
c380 4 399 6 516 63 79 39 170 133 210 218 120 251 120 939 0 1182 -66 134
-187 228 -336 259 -72 16 -596 26 -895 18z m672 -273 c232 -25 295 -91 331
-350 29 -212 7 -567 -42 -680 -28 -63 -84 -117 -145 -140 -75 -28 -238 -41
-466 -39 l-198 3 0 601 c0 331 3 605 7 608 10 11 406 8 513 -3z"/>
<path d="M1010 8360 l0 -150 490 0 c270 0 490 -2 490 -6 0 -3 -223 -519 -495
-1147 l-495 -1142 0 -92 0 -93 675 0 675 0 0 150 0 150 -479 0 -478 0 498
1150 499 1151 0 89 0 90 -690 0 -690 0 0 -150z"/>
<path d="M3242 8433 c-66 -243 -702 -2682 -702 -2692 0 -8 44 -11 150 -11
l149 0 10 38 c6 20 44 174 86 342 42 168 80 322 86 343 l10 37 427 0 427 0 95
-375 95 -375 157 0 157 0 -43 163 c-23 89 -186 712 -362 1384 l-319 1223 -201
0 -201 0 -21 -77z m237 -340 c6 -21 80 -319 166 -663 86 -344 158 -633 161
-642 5 -17 -16 -18 -345 -18 -193 0 -351 3 -351 8 0 4 75 310 167 680 107 430
172 672 180 672 7 0 17 -17 22 -37z"/>
<path d="M8855 8498 c-2 -7 -162 -618 -355 -1358 -193 -740 -355 -1360 -360
-1377 l-8 -33 153 0 153 0 94 378 94 377 426 3 427 2 14 -52 c18 -63 177 -686
177 -693 0 -3 70 -5 155 -5 110 0 155 3 155 11 0 11 -671 2582 -706 2707 l-15
52 -200 0 c-151 0 -201 -3 -204 -12z m378 -1040 c92 -370 167 -676 167 -680 0
-5 -155 -8 -345 -8 -301 0 -345 2 -345 15 0 40 334 1345 344 1345 6 0 80 -277
179 -672z"/>
<path d="M21360 8404 c-298 -35 -411 -75 -510 -180 -123 -130 -162 -324 -181
-906 -18 -514 7 -1096 56 -1330 35 -168 124 -290 258 -353 190 -90 590 -111
892 -49 199 41 327 158 384 349 78 264 103 1253 45 1804 -20 197 -39 282 -79
368 -96 205 -284 287 -680 297 -82 3 -166 2 -185 0z m423 -303 c183 -60 216
-168 239 -782 18 -490 -6 -1064 -53 -1254 -16 -68 -53 -139 -84 -164 -80 -62
-287 -92 -507 -74 -203 17 -264 47 -317 156 -68 138 -85 324 -85 982 -2 950
30 1082 277 1150 40 11 101 14 257 12 180 -3 213 -6 273 -26z"/>
<path d="M13910 6975 l0 -1397 428 5 c521 7 628 19 772 89 123 60 200 169 234
328 94 447 99 1390 10 1925 -15 93 -55 193 -101 253 -36 47 -134 108 -212 132
-151 47 -222 53 -688 57 l-443 5 0 -1397z m872 1110 c98 -16 128 -26 173 -61
72 -54 119 -215 135 -454 29 -424 22 -1005 -15 -1323 -25 -218 -77 -313 -193
-358 -66 -25 -266 -36 -529 -31 l-153 3 0 1119 0 1119 88 4 c140 7 405 -3 494
-18z"/>
<path d="M19210 6980 l0 -1390 595 0 595 0 0 135 0 135 -450 0 -450 0 0 1255
0 1255 -145 0 -145 0 0 -1390z"/>
<path d="M15920 6975 l0 -1385 650 0 650 0 0 135 0 135 -500 0 -500 0 0 505 0
505 435 0 435 0 0 130 0 130 -435 0 -435 0 0 490 0 490 500 0 500 0 0 125 0
125 -650 0 -650 0 0 -1385z"/>
<path d="M17670 6975 l0 -1385 595 0 595 0 0 135 0 135 -447 2 -448 3 -3 1248
-2 1247 -145 0 -145 0 0 -1385z"/>
<path d="M10450 5465 c-113 -29 -317 -76 -455 -105 -137 -29 -254 -57 -260
-62 -13 -12 130 -149 237 -229 134 -100 367 -222 538 -284 98 -35 395 -109
540 -135 290 -51 601 -69 860 -51 426 31 756 97 1025 205 188 76 574 317 679
425 33 33 57 63 54 66 -4 4 -350 87 -876 208 l-63 14 -66 -59 c-113 -103 -216
-159 -396 -217 -220 -70 -444 -96 -693 -81 -186 12 -240 21 -375 61 -201 59
-394 163 -482 258 -21 23 -43 40 -50 39 -7 0 -104 -25 -217 -53z m34 -151 c53
-26 96 -52 96 -59 0 -6 -44 -43 -97 -80 -54 -38 -102 -72 -107 -76 -5 -4 15
-19 43 -33 28 -15 51 -28 51 -31 0 -14 -25 -55 -34 -55 -18 0 -220 104 -223
115 -2 6 18 22 45 37 26 15 78 47 116 71 l69 45 -47 27 c-25 15 -46 31 -46 37
0 15 20 48 29 48 5 0 52 -21 105 -46z m2552 5 c49 -23 98 -89 108 -145 26
-135 -160 -230 -260 -133 -72 69 -84 183 -27 241 28 27 90 57 122 58 8 0 34
-9 57 -21z m-2291 -113 l35 -15 0 -171 0 -171 -22 6 c-70 20 -79 27 -73 56 5
23 3 30 -12 35 -10 3 -32 12 -50 19 -30 13 -33 13 -52 -11 -21 -27 -48 -26
-85 1 -18 14 -15 19 60 97 44 46 95 102 113 126 39 47 39 47 86 28z m1966
-111 c24 -63 47 -115 50 -115 4 0 29 9 55 21 46 19 49 19 62 2 26 -37 11 -54
-78 -89 -47 -18 -90 -33 -96 -34 -10 0 -114 274 -114 299 0 7 46 26 71 30 3 1
26 -51 50 -114z m-1699 29 c28 -9 58 -28 74 -47 22 -26 25 -38 21 -75 -3 -30
-13 -53 -31 -71 -23 -23 -34 -26 -90 -25 l-64 1 -12 -45 c-11 -44 -11 -44 -47
-39 -20 4 -40 10 -45 15 -6 6 10 71 38 161 l48 152 31 -6 c16 -4 51 -13 77
-21z m1458 -56 c25 -88 51 -168 53 -168 1 0 24 7 51 15 64 20 62 20 75 -16 10
-29 9 -31 -22 -43 -62 -25 -168 -49 -176 -40 -8 8 -81 275 -81 294 0 8 45 28
67 29 7 1 22 -32 33 -71z m-137 -4 c2 -26 -1 -29 -48 -39 -40 -9 -51 -15 -53
-34 -3 -21 -1 -22 43 -15 51 7 65 -2 65 -42 0 -18 -8 -23 -45 -28 -46 -7 -56
-23 -36 -55 7 -11 18 -11 66 0 48 11 58 10 66 -2 8 -12 13 -59 7 -59 -2 0 -50
-9 -107 -20 -68 -14 -107 -17 -111 -10 -9 14 -54 300 -48 305 10 10 183 42
191 35 4 -4 9 -20 10 -36z m-1009 -8 c78 -32 87 -154 15 -191 -15 -8 -50 -15
-77 -15 l-49 0 -9 -47 c-10 -51 -15 -53 -80 -38 l-21 5 28 137 c16 76 31 147
34 159 4 19 9 20 65 13 33 -5 75 -15 94 -23z m715 -35 c41 -29 62 -71 67 -135
10 -105 -53 -160 -197 -172 -45 -4 -79 -3 -82 3 -3 5 -9 80 -13 165 l-7 156
29 5 c16 3 61 4 100 3 55 -2 79 -8 103 -25z m-421 -126 c64 -204 63 -187 6
-183 -44 3 -48 6 -56 33 -7 28 -10 30 -59 30 -46 0 -52 -3 -66 -29 -13 -24
-19 -27 -45 -22 -17 3 -36 6 -43 6 -8 0 14 60 58 155 l72 156 45 -3 44 -3 44
-140z"/>
<path d="M12927 5242 c-20 -21 -21 -49 -6 -89 26 -71 93 -97 124 -49 15 23 15
28 -6 76 -32 75 -78 100 -112 62z"/>
<path d="M10665 5070 c-30 -44 -30 -44 2 -54 19 -6 22 -2 29 39 3 25 4 48 2
51 -3 2 -18 -14 -33 -36z"/>
<path d="M10955 5024 c-7 -42 4 -59 34 -49 43 13 35 85 -9 85 -13 0 -20 -11
-25 -36z"/>
<path d="M11236 4988 c-3 -13 -6 -33 -6 -46 0 -20 4 -23 28 -20 22 2 28 9 30
33 3 19 -2 33 -14 42 -25 18 -31 16 -38 -9z"/>
<path d="M11904 4919 c3 -34 6 -77 6 -95 0 -29 3 -34 24 -34 13 0 35 9 50 21
20 16 26 29 26 59 0 70 -34 110 -92 110 -20 0 -20 -4 -14 -61z"/>
<path d="M11502 4897 c-17 -48 -15 -57 14 -57 24 0 26 3 20 31 -3 17 -6 38 -6
45 0 25 -16 14 -28 -19z"/>
</g>
</svg>
